<?xml version="1.0" encoding="utf-8"?>
<!-- Generator: Adobe Illustrator 22.1.0, SVG Export Plug-In . SVG Version: 6.00 Build 0)  -->
<svg version="1.1" id="图层_1" xmlns="http://www.w3.org/2000/svg" xmlns:xlink="http://www.w3.org/1999/xlink" x="0px" y="0px"
	 viewBox="0 0 175 175" style="enable-background:new 0 0 175 175;" xml:space="preserve">
<style type="text/css">
	.st0{fill:#01B0F1;}
</style>
<path class="st0" d="M78.1,87.5c0,5.2,4.2,9.4,9.4,9.4s9.4-4.2,9.4-9.4c0-5.2-4.2-9.4-9.4-9.4S78.1,82.3,78.1,87.5z"/>
<path class="st0" d="M117.2,87.5c0,5.2,4.2,9.4,9.4,9.4s9.4-4.2,9.4-9.4c0-5.2-4.2-9.4-9.4-9.4S117.2,82.3,117.2,87.5z"/>
<path class="st0" d="M39.1,87.5c0,5.2,4.2,9.4,9.4,9.4s9.4-4.2,9.4-9.4c0-5.2-4.2-9.4-9.4-9.4S39.1,82.3,39.1,87.5z"/>
<path class="st0" d="M168.2,53.6c-4.4-10.5-10.7-19.9-18.8-28c-8.1-8.1-17.5-14.4-28-18.8C110.7,2.3,99.3,0,87.5,0h-0.4
	C75.3,0.1,63.8,2.4,53,7c-10.4,4.5-19.7,10.8-27.7,18.8S11,43.3,6.7,53.8C2.2,64.6-0.1,76.1,0,87.9c0.1,13.6,3.3,27,9.4,39v29.7
	c0,5,4,9,9,9h29.7c12,6.1,25.5,9.3,39,9.4h0.4c11.7,0,23-2.3,33.7-6.7c10.4-4.4,19.8-10.6,27.9-18.6c8.1-8,14.4-17.3,18.8-27.7
	c4.6-10.8,7-22.2,7-34.1C175.1,76,172.8,64.5,168.2,53.6z M138.7,139.1c-13.7,13.6-31.9,21-51.2,21h-0.3c-11.8-0.1-23.5-3-33.8-8.5
	l-1.6-0.9H24.2v-27.5l-0.9-1.6c-5.5-10.3-8.4-22-8.5-33.8c-0.1-19.5,7.4-37.8,21-51.5c13.6-13.8,31.9-21.4,51.3-21.5h0.3
	c9.8,0,19.2,1.9,28.2,5.6c8.7,3.7,16.5,8.9,23.2,15.6c6.7,6.7,12,14.5,15.6,23.2c3.8,9,5.7,18.6,5.6,28.5
	C160.1,107.3,152.4,125.5,138.7,139.1L138.7,139.1z"/>
</svg>
