<?xml version="1.0" encoding="utf-8"?>
<!-- Generator: Adobe Illustrator 22.1.0, SVG Export Plug-In . SVG Version: 6.00 Build 0)  -->
<svg version="1.1" id="图层_1" xmlns="http://www.w3.org/2000/svg" xmlns:xlink="http://www.w3.org/1999/xlink" x="0px" y="0px"
	 viewBox="0 0 165.7 175" style="enable-background:new 0 0 165.7 175;" xml:space="preserve">
<style type="text/css">
	.st0{fill:#01B0F1;}
</style>
<path class="st0" d="M163.5,109.7l-12.8-10.9c0.6-3.7,0.9-7.5,0.9-11.3s-0.3-7.6-0.9-11.3l12.8-10.9c2-1.7,2.7-4.4,1.8-6.9l-0.2-0.5
	C161.6,48,156.3,39,149.5,31l-0.4-0.4c-1.7-2-4.4-2.7-6.9-1.9l-15.9,5.6c-5.9-4.8-12.4-8.6-19.5-11.3l-3.1-16.6
	c-0.5-2.6-2.5-4.6-5-5l-0.5-0.1c-10.2-1.8-20.9-1.8-31.1,0l-0.5,0.1c-2.6,0.5-4.6,2.5-5,5l-3.1,16.7c-7,2.7-13.5,6.4-19.3,11.2
	l-16-5.7c-2.4-0.9-5.2-0.1-6.9,1.9L16.1,31c-6.8,8-12,17.1-15.6,26.9l-0.2,0.5c-0.9,2.4-0.2,5.2,1.8,6.9l12.9,11.1
	c-0.6,3.7-0.9,7.4-0.9,11.2c0,3.8,0.3,7.5,0.9,11.2L2.2,109.7c-2,1.7-2.7,4.4-1.8,6.9l0.2,0.5c3.5,9.8,8.8,18.9,15.6,26.9l0.4,0.4
	c1.7,2,4.4,2.7,6.9,1.9l16-5.7c5.8,4.8,12.3,8.6,19.3,11.2l3.1,16.7c0.5,2.6,2.5,4.6,5,5l0.5,0.1c5.1,0.9,10.3,1.4,15.5,1.4
	s10.4-0.5,15.5-1.4l0.5-0.1c2.6-0.5,4.6-2.5,5-5l3.1-16.6c7.1-2.7,13.6-6.4,19.5-11.3l15.9,5.6c2.4,0.9,5.2,0.1,6.9-1.9l0.4-0.4
	c6.8-8,12-17.1,15.6-26.9l0.2-0.5C166.2,114.2,165.4,111.4,163.5,109.7L163.5,109.7z M136.8,78.5c0.5,2.9,0.7,6,0.7,9
	s-0.3,6.1-0.7,9l-1.3,7.8l14.6,12.5c-2.2,5.1-5,9.9-8.3,14.4l-18.1-6.4l-6.1,5c-4.7,3.8-9.9,6.8-15.5,8.9l-7.4,2.8l-3.5,18.9
	c-5.5,0.6-11.1,0.6-16.6,0l-3.5-19l-7.4-2.8c-5.6-2.1-10.7-5.1-15.4-8.9l-6.1-5.1l-18.2,6.5c-3.3-4.5-6.1-9.3-8.3-14.4l14.7-12.6
	L29,96.4c-0.5-2.9-0.7-5.9-0.7-8.9c0-3,0.2-6,0.7-8.9l1.3-7.8L15.6,58.2c2.2-5.1,5-9.9,8.3-14.4l18.2,6.5l6.1-5.1
	c4.6-3.8,9.8-6.8,15.4-8.9l7.4-2.8l3.5-19c5.5-0.6,11.1-0.6,16.6,0l3.5,18.9l7.4,2.8c5.6,2.1,10.8,5.1,15.5,8.9l6.1,5l18.1-6.4
	c3.3,4.5,6.1,9.3,8.3,14.4l-14.6,12.5L136.8,78.5z"/>
<path class="st0" d="M82.8,51.2c-19,0-34.4,15.4-34.4,34.4S63.9,120,82.8,120s34.4-15.4,34.4-34.4S101.8,51.2,82.8,51.2z M98.3,101
	c-4.1,4.1-9.6,6.4-15.5,6.4c-5.8,0-11.3-2.3-15.5-6.4c-4.1-4.1-6.4-9.6-6.4-15.5s2.3-11.3,6.4-15.5c4.1-4.1,9.6-6.4,15.5-6.4
	c5.8,0,11.3,2.3,15.5,6.4c4.1,4.1,6.4,9.6,6.4,15.5S102.4,96.9,98.3,101z"/>
</svg>
